  <svg
    height="31"
    viewBox="0 0 722 161"
    fill="none"
    xmlns="http://www.w3.org/2000/svg"
  >
    <path
      fill-rule="evenodd"
      clip-rule="evenodd"
      d="M120.034 160.399H0V0H120.034V160.399ZM33.3434 126.983H86.6926V33.417H33.3434V126.983Z"
      fill="white"
    />
    <path
      fill-rule="evenodd"
      clip-rule="evenodd"
      d="M226.73 160.399H146.708V0H313.421L226.73 160.399ZM180.05 126.982H206.725L260.073 33.416H180.05V126.982Z"
      fill="white"
    />
    <path
      fill-rule="evenodd"
      clip-rule="evenodd"
      d="M426.787 160.399H393.444V126.983H315.175L296.75 160.399H260.073L346.764 0H426.787V160.399ZM333.602 93.5665H393.444V33.416H366.77L333.602 93.5665Z"
      fill="white"
    />
    <path
      d="M484.637 32.6812C482.397 32.6812 480.316 32.3003 478.396 31.5384C476.475 30.7364 474.815 29.6537 473.414 28.2903C472.054 26.8868 470.974 25.2227 470.173 23.2979C469.413 21.3731 469.033 19.2879 469.033 17.0423C469.033 14.7968 469.413 12.7116 470.173 10.7868C470.974 8.86202 472.054 7.21793 473.414 5.85455C474.815 4.45106 476.475 3.36837 478.396 2.60648C480.316 1.80448 482.397 1.40348 484.637 1.40348C486.878 1.40348 488.959 1.80448 490.879 2.60648C492.8 3.36837 494.44 4.45106 495.801 5.85455C497.201 7.21793 498.281 8.86202 499.041 10.7868C499.842 12.7116 500.242 14.7968 500.242 17.0423C500.242 19.2879 499.842 21.3731 499.041 23.2979C498.281 25.2227 497.201 26.8868 495.801 28.2903C494.44 29.6537 492.8 30.7364 490.879 31.5384C488.959 32.3003 486.878 32.6812 484.637 32.6812ZM484.637 28.17C486.198 28.17 487.638 27.9093 488.959 27.388C490.279 26.8267 491.419 26.0648 492.38 25.1024C493.34 24.0999 494.08 22.9169 494.6 21.5536C495.16 20.1902 495.44 18.6864 495.44 17.0423C495.44 15.3983 495.16 13.8945 494.6 12.5311C494.08 11.1677 493.34 10.0049 492.38 9.04247C491.419 8.03998 490.279 7.27808 488.959 6.75679C487.638 6.19539 486.198 5.91469 484.637 5.91469C483.077 5.91469 481.637 6.19539 480.316 6.75679C478.996 7.27808 477.855 8.03998 476.895 9.04247C475.935 10.0049 475.175 11.1677 474.615 12.5311C474.094 13.8945 473.834 15.3983 473.834 17.0423C473.834 18.6864 474.094 20.1902 474.615 21.5536C475.175 22.9169 475.935 24.0999 476.895 25.1024C477.855 26.0648 478.996 26.8267 480.316 27.388C481.637 27.9093 483.077 28.17 484.637 28.17Z"
      fill="white"
    />
    <path
      d="M506.82 2.00498H511.622V6.81694H511.682C511.682 6.81694 511.862 6.53624 512.222 5.97484C512.622 5.37335 513.242 4.7518 514.082 4.11021C514.963 3.42852 516.083 2.80697 517.443 2.24558C518.804 1.68418 520.464 1.40348 522.425 1.40348C524.385 1.40348 526.226 1.80448 527.946 2.60648C529.707 3.36837 531.247 4.45106 532.568 5.85455C533.888 7.21793 534.928 8.86202 535.688 10.7868C536.449 12.7116 536.829 14.7968 536.829 17.0423C536.829 19.2879 536.449 21.3731 535.688 23.2979C534.928 25.2227 533.888 26.8868 532.568 28.2903C531.247 29.6537 529.707 30.7364 527.946 31.5384C526.226 32.3003 524.385 32.6812 522.425 32.6812C520.464 32.6812 518.804 32.4005 517.443 31.8391C516.083 31.2777 514.963 30.6762 514.082 30.0346C513.242 29.3529 512.622 28.7314 512.222 28.17C511.862 27.5685 511.682 27.2677 511.682 27.2677H511.622V43.5081H506.82V2.00498ZM521.825 28.17C523.265 28.17 524.605 27.9093 525.846 27.388C527.086 26.8267 528.166 26.0648 529.087 25.1024C530.007 24.0999 530.727 22.9169 531.247 21.5536C531.767 20.1902 532.027 18.6864 532.027 17.0423C532.027 15.3983 531.767 13.8945 531.247 12.5311C530.727 11.1677 530.007 10.0049 529.087 9.04247C528.166 8.03998 527.086 7.27808 525.846 6.75679C524.605 6.19539 523.265 5.91469 521.825 5.91469C520.384 5.91469 519.044 6.19539 517.803 6.75679C516.563 7.27808 515.483 8.03998 514.562 9.04247C513.642 10.0049 512.922 11.1677 512.402 12.5311C511.882 13.8945 511.622 15.3983 511.622 17.0423C511.622 18.6864 511.882 20.1902 512.402 21.5536C512.922 22.9169 513.642 24.0999 514.562 25.1024C515.483 26.0648 516.563 26.8267 517.803 27.388C519.044 27.9093 520.384 28.17 521.825 28.17Z"
      fill="white"
    />
    <path
      d="M556.956 32.6812C554.795 32.6812 552.774 32.3003 550.894 31.5384C549.013 30.7364 547.393 29.6537 546.032 28.2903C544.672 26.8868 543.592 25.2227 542.792 23.2979C542.031 21.3731 541.651 19.2879 541.651 17.0423C541.651 14.7968 542.031 12.7116 542.792 10.7868C543.592 8.86202 544.672 7.21793 546.032 5.85455C547.393 4.45106 549.013 3.36837 550.894 2.60648C552.774 1.80448 554.795 1.40348 556.956 1.40348C559.116 1.40348 561.137 1.80448 563.017 2.60648C564.898 3.36837 566.518 4.43101 567.879 5.7944C569.239 7.15778 570.299 8.78182 571.06 10.6665C571.86 12.5512 572.26 14.5762 572.26 16.7416V18.5461H546.453C546.613 19.9496 546.993 21.2528 547.593 22.4558C548.193 23.6187 548.953 24.6212 549.874 25.4633C550.794 26.3054 551.854 26.967 553.054 27.4482C554.295 27.9294 555.595 28.17 556.956 28.17C558.756 28.17 560.276 27.8893 561.517 27.3279C562.757 26.7665 563.778 26.145 564.578 25.4633C565.498 24.7014 566.258 23.7991 566.858 22.7565H571.66C570.94 24.6412 569.919 26.3054 568.599 27.7489C567.438 28.992 565.918 30.1349 564.038 31.1775C562.157 32.18 559.796 32.6812 556.956 32.6812ZM567.159 14.3356C566.998 13.2128 566.638 12.1502 566.078 11.1477C565.558 10.1051 564.858 9.20286 563.978 8.44097C563.097 7.67908 562.057 7.07758 560.857 6.63649C559.696 6.15529 558.396 5.91469 556.956 5.91469C555.515 5.91469 554.195 6.15529 552.994 6.63649C551.834 7.07758 550.794 7.67908 549.874 8.44097C548.993 9.20286 548.273 10.1051 547.713 11.1477C547.153 12.1502 546.773 13.2128 546.573 14.3356H567.159Z"
      fill="white"
    />
    <path
      d="M578.852 2.00498H583.654V6.51619H583.714C584.314 5.5538 585.094 4.71171 586.054 3.98991C586.855 3.34832 587.895 2.76687 589.175 2.24558C590.496 1.68418 592.056 1.40348 593.857 1.40348C595.657 1.40348 597.298 1.70423 598.778 2.30573C600.258 2.86712 601.519 3.70921 602.559 4.83201C603.599 5.9548 604.4 7.31818 604.96 8.92217C605.56 10.4861 605.86 12.2905 605.86 14.3356V32.0797H601.059V14.6364C601.059 11.6289 600.298 9.42341 598.778 8.01993C597.298 6.61644 595.357 5.91469 592.956 5.91469C591.596 5.91469 590.336 6.15529 589.175 6.63649C588.055 7.07758 587.075 7.73923 586.234 8.62142C585.434 9.50361 584.794 10.5663 584.314 11.8093C583.874 13.0123 583.654 14.3557 583.654 15.8394V32.0797H578.852V2.00498Z"
      fill="white"
    />
    <path
      d="M483.437 96.8406C481.477 96.8406 479.616 96.4597 477.855 95.6978C476.135 94.8958 474.615 93.8131 473.294 92.4497C471.974 91.0462 470.934 89.3821 470.173 87.4573C469.413 85.5325 469.033 83.4473 469.033 81.2018C469.033 78.9562 469.413 76.871 470.173 74.9462C470.934 73.0214 471.974 71.3773 473.294 70.014C474.615 68.6105 476.135 67.5278 477.855 66.7659C479.616 65.9639 481.477 65.5629 483.437 65.5629C485.398 65.5629 487.058 65.8436 488.418 66.405C489.779 66.9664 490.879 67.5879 491.719 68.2696C492.6 68.9112 493.22 69.5328 493.58 70.1343C493.98 70.6957 494.18 70.9763 494.18 70.9763H494.24V54.1345H499.041V96.2391H494.24V91.4272H494.18C494.18 91.4272 493.98 91.7279 493.58 92.3294C493.22 92.8908 492.6 93.5123 491.719 94.194C490.879 94.8356 489.779 95.4371 488.418 95.9985C487.058 96.5599 485.398 96.8406 483.437 96.8406ZM484.037 92.3294C485.478 92.3294 486.818 92.0688 488.058 91.5475C489.299 90.9861 490.379 90.2242 491.299 89.2618C492.22 88.2593 492.94 87.0763 493.46 85.713C493.98 84.3496 494.24 82.8458 494.24 81.2018C494.24 79.5577 493.98 78.0539 493.46 76.6905C492.94 75.3272 492.22 74.1643 491.299 73.2019C490.379 72.1994 489.299 71.4375 488.058 70.9162C486.818 70.3548 485.478 70.0741 484.037 70.0741C482.597 70.0741 481.256 70.3548 480.016 70.9162C478.776 71.4375 477.695 72.1994 476.775 73.2019C475.855 74.1643 475.135 75.3272 474.615 76.6905C474.094 78.0539 473.834 79.5577 473.834 81.2018C473.834 82.8458 474.094 84.3496 474.615 85.713C475.135 87.0763 475.855 88.2593 476.775 89.2618C477.695 90.2242 478.776 90.9861 480.016 91.5475C481.256 92.0688 482.597 92.3294 484.037 92.3294Z"
      fill="white"
    />
    <path
      d="M521.269 96.8406C519.028 96.8406 516.948 96.4597 515.027 95.6978C513.107 94.8958 511.446 93.8131 510.046 92.4497C508.685 91.0462 507.605 89.3821 506.805 87.4573C506.045 85.5325 505.664 83.4473 505.664 81.2018C505.664 78.9562 506.045 76.871 506.805 74.9462C507.605 73.0214 508.685 71.3773 510.046 70.014C511.446 68.6105 513.107 67.5278 515.027 66.7659C516.948 65.9639 519.028 65.5629 521.269 65.5629C523.51 65.5629 525.59 65.9639 527.511 66.7659C529.431 67.5278 531.072 68.6105 532.432 70.014C533.832 71.3773 534.913 73.0214 535.673 74.9462C536.473 76.871 536.873 78.9562 536.873 81.2018C536.873 83.4473 536.473 85.5325 535.673 87.4573C534.913 89.3821 533.832 91.0462 532.432 92.4497C531.072 93.8131 529.431 94.8958 527.511 95.6978C525.59 96.4597 523.51 96.8406 521.269 96.8406ZM521.269 92.3294C522.829 92.3294 524.27 92.0688 525.59 91.5475C526.91 90.9861 528.051 90.2242 529.011 89.2618C529.971 88.2593 530.712 87.0763 531.232 85.713C531.792 84.3496 532.072 82.8458 532.072 81.2018C532.072 79.5577 531.792 78.0539 531.232 76.6905C530.712 75.3272 529.971 74.1643 529.011 73.2019C528.051 72.1994 526.91 71.4375 525.59 70.9162C524.27 70.3548 522.829 70.0741 521.269 70.0741C519.708 70.0741 518.268 70.3548 516.948 70.9162C515.627 71.4375 514.487 72.1994 513.527 73.2019C512.566 74.1643 511.806 75.3272 511.246 76.6905C510.726 78.0539 510.466 79.5577 510.466 81.2018C510.466 82.8458 510.726 84.3496 511.246 85.713C511.806 87.0763 512.566 88.2593 513.527 89.2618C514.487 90.2242 515.627 90.9861 516.948 91.5475C518.268 92.0688 519.708 92.3294 521.269 92.3294Z"
      fill="white"
    />
    <path
      d="M543.452 66.1644H548.253V70.6756H548.313C548.913 69.7132 549.694 68.8711 550.654 68.1493C551.454 67.5077 552.494 66.9263 553.775 66.405C555.095 65.8436 556.656 65.5629 558.456 65.5629C560.257 65.5629 561.897 65.8636 563.377 66.4651C564.858 67.0265 566.118 67.8686 567.159 68.9914C568.199 70.1142 568.999 71.4776 569.559 73.0816C570.159 74.6455 570.459 76.45 570.459 78.495V96.2391H565.658V78.7958C565.658 75.7883 564.898 73.5828 563.377 72.1793C561.897 70.7758 559.956 70.0741 557.556 70.0741C556.195 70.0741 554.935 70.3147 553.775 70.7959C552.654 71.237 551.674 71.8986 550.834 72.7808C550.034 73.663 549.393 74.7257 548.913 75.9688C548.473 77.1717 548.253 78.5151 548.253 79.9988V96.2391H543.452V66.1644Z"
      fill="white"
    />
    <path
      d="M591.163 96.8406C589.202 96.8406 587.342 96.4597 585.581 95.6978C583.861 94.8958 582.34 93.8131 581.02 92.4497C579.7 91.0462 578.659 89.3821 577.899 87.4573C577.139 85.5325 576.759 83.4473 576.759 81.2018C576.759 78.9562 577.139 76.871 577.899 74.9462C578.659 73.0214 579.7 71.3773 581.02 70.014C582.34 68.6105 583.861 67.5278 585.581 66.7659C587.342 65.9639 589.202 65.5629 591.163 65.5629C593.123 65.5629 594.784 65.8436 596.144 66.405C597.505 66.9664 598.605 67.5879 599.445 68.2696C600.326 68.9513 600.946 69.5929 601.306 70.1944C601.706 70.7558 601.906 71.0365 601.906 71.0365H601.966V66.1644H606.767V96.2391H601.966V91.4272H601.906C601.906 91.4272 601.706 91.7279 601.306 92.3294C600.946 92.8908 600.326 93.5123 599.445 94.194C598.605 94.8356 597.505 95.4371 596.144 95.9985C594.784 96.5599 593.123 96.8406 591.163 96.8406ZM591.763 92.3294C593.203 92.3294 594.544 92.0688 595.784 91.5475C597.025 90.9861 598.105 90.2242 599.025 89.2618C599.945 88.2593 600.666 87.0763 601.186 85.713C601.706 84.3496 601.966 82.8458 601.966 81.2018C601.966 79.5577 601.706 78.0539 601.186 76.6905C600.666 75.3272 599.945 74.1643 599.025 73.2019C598.105 72.1994 597.025 71.4375 595.784 70.9162C594.544 70.3548 593.203 70.0741 591.763 70.0741C590.323 70.0741 588.982 70.3548 587.742 70.9162C586.502 71.4375 585.421 72.1994 584.501 73.2019C583.581 74.1643 582.861 75.3272 582.34 76.6905C581.82 78.0539 581.56 79.5577 581.56 81.2018C581.56 82.8458 581.82 84.3496 582.34 85.713C582.861 87.0763 583.581 88.2593 584.501 89.2618C585.421 90.2242 586.502 90.9861 587.742 91.5475C588.982 92.0688 590.323 92.3294 591.763 92.3294Z"
      fill="white"
    />
    <path
      d="M616.391 70.6756H612.49V66.1644H616.391V59.548H621.193V66.1644H630.795V70.6756H621.193V91.7279H631.095V96.2391H616.391V70.6756Z"
      fill="white"
    />
    <path
      d="M637.111 66.1644H641.912V96.2391H637.111V66.1644ZM639.512 60.4502C638.591 60.4502 637.811 60.1294 637.171 59.4878C636.531 58.8462 636.211 58.0643 636.211 57.142C636.211 56.2197 636.531 55.4377 637.171 54.7961C637.811 54.1545 638.591 53.8338 639.512 53.8338C640.432 53.8338 641.212 54.1545 641.852 54.7961C642.493 55.4377 642.813 56.2197 642.813 57.142C642.813 58.0643 642.493 58.8462 641.852 59.4878C641.212 60.1294 640.432 60.4502 639.512 60.4502Z"
      fill="white"
    />
    <path
      d="M664.102 96.8406C661.862 96.8406 659.781 96.4597 657.861 95.6978C655.94 94.8958 654.28 93.8131 652.879 92.4497C651.519 91.0462 650.438 89.3821 649.638 87.4573C648.878 85.5325 648.498 83.4473 648.498 81.2018C648.498 78.9562 648.878 76.871 649.638 74.9462C650.438 73.0214 651.519 71.3773 652.879 70.014C654.28 68.6105 655.94 67.5278 657.861 66.7659C659.781 65.9639 661.862 65.5629 664.102 65.5629C666.343 65.5629 668.424 65.9639 670.344 66.7659C672.265 67.5278 673.905 68.6105 675.266 70.014C676.666 71.3773 677.746 73.0214 678.506 74.9462C679.307 76.871 679.707 78.9562 679.707 81.2018C679.707 83.4473 679.307 85.5325 678.506 87.4573C677.746 89.3821 676.666 91.0462 675.266 92.4497C673.905 93.8131 672.265 94.8958 670.344 95.6978C668.424 96.4597 666.343 96.8406 664.102 96.8406ZM664.102 92.3294C665.663 92.3294 667.103 92.0688 668.424 91.5475C669.744 90.9861 670.884 90.2242 671.845 89.2618C672.805 88.2593 673.545 87.0763 674.065 85.713C674.625 84.3496 674.905 82.8458 674.905 81.2018C674.905 79.5577 674.625 78.0539 674.065 76.6905C673.545 75.3272 672.805 74.1643 671.845 73.2019C670.884 72.1994 669.744 71.4375 668.424 70.9162C667.103 70.3548 665.663 70.0741 664.102 70.0741C662.542 70.0741 661.102 70.3548 659.781 70.9162C658.461 71.4375 657.32 72.1994 656.36 73.2019C655.4 74.1643 654.64 75.3272 654.079 76.6905C653.559 78.0539 653.299 79.5577 653.299 81.2018C653.299 82.8458 653.559 84.3496 654.079 85.713C654.64 87.0763 655.4 88.2593 656.36 89.2618C657.32 90.2242 658.461 90.9861 659.781 91.5475C661.102 92.0688 662.542 92.3294 664.102 92.3294Z"
      fill="white"
    />
    <path
      d="M686.285 66.1644H691.087V70.6756H691.147C691.747 69.7132 692.527 68.8711 693.487 68.1493C694.287 67.5077 695.328 66.9263 696.608 66.405C697.929 65.8436 699.489 65.5629 701.289 65.5629C703.09 65.5629 704.73 65.8636 706.211 66.4651C707.691 67.0265 708.952 67.8686 709.992 68.9914C711.032 70.1142 711.832 71.4776 712.393 73.0816C712.993 74.6455 713.293 76.45 713.293 78.495V96.2391H708.492V78.7958C708.492 75.7883 707.731 73.5828 706.211 72.1793C704.73 70.7758 702.79 70.0741 700.389 70.0741C699.029 70.0741 697.768 70.3147 696.608 70.7959C695.488 71.237 694.508 71.8986 693.667 72.7808C692.867 73.663 692.227 74.7257 691.747 75.9688C691.307 77.1717 691.087 78.5151 691.087 79.9988V96.2391H686.285V66.1644Z"
      fill="white"
    />
    <path
      d="M483.437 161C481.477 161 479.616 160.619 477.855 159.857C476.135 159.055 474.615 157.972 473.294 156.609C471.974 155.206 470.934 153.541 470.173 151.617C469.413 149.692 469.033 147.607 469.033 145.361C469.033 143.116 469.413 141.03 470.173 139.106C470.934 137.181 471.974 135.537 473.294 134.173C474.615 132.77 476.135 131.687 477.855 130.925C479.616 130.123 481.477 129.722 483.437 129.722C485.398 129.722 487.058 130.003 488.418 130.564C489.779 131.126 490.879 131.747 491.719 132.429C492.6 133.111 493.22 133.752 493.58 134.354C493.98 134.915 494.18 135.196 494.18 135.196H494.24V130.324H499.041V160.399H494.24V155.587H494.18C494.18 155.587 493.98 155.887 493.58 156.489C493.22 157.05 492.6 157.672 491.719 158.353C490.879 158.995 489.779 159.597 488.418 160.158C487.058 160.719 485.398 161 483.437 161ZM484.037 156.489C485.478 156.489 486.818 156.228 488.058 155.707C489.299 155.145 490.379 154.384 491.299 153.421C492.22 152.419 492.94 151.236 493.46 149.872C493.98 148.509 494.24 147.005 494.24 145.361C494.24 143.717 493.98 142.213 493.46 140.85C492.94 139.487 492.22 138.324 491.299 137.361C490.379 136.359 489.299 135.597 488.058 135.076C486.818 134.514 485.478 134.234 484.037 134.234C482.597 134.234 481.256 134.514 480.016 135.076C478.776 135.597 477.695 136.359 476.775 137.361C475.855 138.324 475.135 139.487 474.615 140.85C474.094 142.213 473.834 143.717 473.834 145.361C473.834 147.005 474.094 148.509 474.615 149.872C475.135 151.236 475.855 152.419 476.775 153.421C477.695 154.384 478.776 155.145 480.016 155.707C481.256 156.228 482.597 156.489 484.037 156.489Z"
      fill="white"
    />
    <path
      d="M519.168 161C517.688 161 516.367 160.86 515.207 160.579C514.047 160.298 513.007 159.937 512.086 159.496C511.166 159.015 510.346 158.474 509.626 157.872C508.945 157.271 508.365 156.669 507.885 156.068C506.725 154.624 505.885 152.96 505.364 151.075H510.466C510.866 152.118 511.446 153.02 512.206 153.782C512.887 154.464 513.767 155.085 514.847 155.647C515.967 156.208 517.408 156.489 519.168 156.489C521.889 156.489 523.81 156.048 524.93 155.166C526.09 154.243 526.67 153.181 526.67 151.978C526.67 150.935 526.17 150.133 525.17 149.572C524.21 149.01 522.989 148.529 521.509 148.128C520.069 147.727 518.488 147.346 516.768 146.985C515.047 146.624 513.447 146.103 511.966 145.421C510.526 144.74 509.305 143.837 508.305 142.715C507.345 141.592 506.865 140.068 506.865 138.143C506.865 137.02 507.105 135.958 507.585 134.955C508.065 133.913 508.785 133.01 509.746 132.249C510.706 131.487 511.886 130.885 513.287 130.444C514.727 129.963 516.388 129.722 518.268 129.722C519.668 129.722 520.909 129.863 521.989 130.143C523.109 130.384 524.09 130.725 524.93 131.166C525.81 131.567 526.57 132.048 527.211 132.609C527.851 133.131 528.411 133.672 528.891 134.234C529.931 135.557 530.692 137.061 531.172 138.745H526.07C525.71 137.943 525.19 137.201 524.51 136.519C523.95 135.958 523.149 135.436 522.109 134.955C521.109 134.474 519.828 134.234 518.268 134.234C517.148 134.234 516.167 134.354 515.327 134.594C514.487 134.835 513.787 135.156 513.227 135.557C512.706 135.918 512.306 136.339 512.026 136.82C511.786 137.261 511.666 137.702 511.666 138.143C511.666 139.186 512.146 139.988 513.107 140.549C514.107 141.111 515.327 141.592 516.768 141.993C518.248 142.394 519.848 142.775 521.569 143.136C523.289 143.497 524.87 144.018 526.31 144.7C527.791 145.381 529.011 146.303 529.971 147.466C530.972 148.589 531.472 150.093 531.472 151.978C531.472 153.181 531.212 154.323 530.692 155.406C530.171 156.489 529.391 157.451 528.351 158.293C527.311 159.135 526.03 159.797 524.51 160.278C522.989 160.759 521.209 161 519.168 161Z"
      fill="white"
    />
    <path
      d="M549.763 161C548.283 161 546.962 160.86 545.802 160.579C544.641 160.298 543.601 159.937 542.681 159.496C541.761 159.015 540.94 158.474 540.22 157.872C539.54 157.271 538.96 156.669 538.48 156.068C537.319 154.624 536.479 152.96 535.959 151.075H541.06C541.461 152.118 542.041 153.02 542.801 153.782C543.481 154.464 544.361 155.085 545.442 155.647C546.562 156.208 548.002 156.489 549.763 156.489C552.484 156.489 554.404 156.048 555.525 155.166C556.685 154.243 557.265 153.181 557.265 151.978C557.265 150.935 556.765 150.133 555.765 149.572C554.804 149.01 553.584 148.529 552.104 148.128C550.663 147.727 549.083 147.346 547.362 146.985C545.642 146.624 544.041 146.103 542.561 145.421C541.12 144.74 539.9 143.837 538.9 142.715C537.94 141.592 537.459 140.068 537.459 138.143C537.459 137.02 537.699 135.958 538.18 134.955C538.66 133.913 539.38 133.01 540.34 132.249C541.3 131.487 542.481 130.885 543.881 130.444C545.322 129.963 546.982 129.722 548.863 129.722C550.263 129.722 551.503 129.863 552.584 130.143C553.704 130.384 554.684 130.725 555.525 131.166C556.405 131.567 557.165 132.048 557.805 132.609C558.445 133.131 559.005 133.672 559.486 134.234C560.526 135.557 561.286 137.061 561.766 138.745H556.665C556.305 137.943 555.785 137.201 555.104 136.519C554.544 135.958 553.744 135.436 552.704 134.955C551.703 134.474 550.423 134.234 548.863 134.234C547.742 134.234 546.762 134.354 545.922 134.594C545.082 134.835 544.381 135.156 543.821 135.557C543.301 135.918 542.901 136.339 542.621 136.82C542.381 137.261 542.261 137.702 542.261 138.143C542.261 139.186 542.741 139.988 543.701 140.549C544.701 141.111 545.922 141.592 547.362 141.993C548.843 142.394 550.443 142.775 552.164 143.136C553.884 143.497 555.464 144.018 556.905 144.7C558.385 145.381 559.606 146.303 560.566 147.466C561.566 148.589 562.066 150.093 562.066 151.978C562.066 153.181 561.806 154.323 561.286 155.406C560.766 156.489 559.986 157.451 558.945 158.293C557.905 159.135 556.625 159.797 555.104 160.278C553.584 160.759 551.804 161 549.763 161Z"
      fill="white"
    />
    <path
      d="M568.654 130.324H573.456V160.399H568.654V130.324ZM571.055 124.61C570.135 124.61 569.354 124.289 568.714 123.647C568.074 123.006 567.754 122.224 567.754 121.301C567.754 120.379 568.074 119.597 568.714 118.956C569.354 118.314 570.135 117.993 571.055 117.993C571.975 117.993 572.755 118.314 573.396 118.956C574.036 119.597 574.356 120.379 574.356 121.301C574.356 122.224 574.036 123.006 573.396 123.647C572.755 124.289 571.975 124.61 571.055 124.61Z"
      fill="white"
    />
    <path
      d="M593.545 161C592.064 161 590.744 160.86 589.584 160.579C588.423 160.298 587.383 159.937 586.463 159.496C585.543 159.015 584.722 158.474 584.002 157.872C583.322 157.271 582.742 156.669 582.262 156.068C581.101 154.624 580.261 152.96 579.741 151.075H584.842C585.242 152.118 585.823 153.02 586.583 153.782C587.263 154.464 588.143 155.085 589.224 155.647C590.344 156.208 591.784 156.489 593.545 156.489C596.266 156.489 598.186 156.048 599.306 155.166C600.467 154.243 601.047 153.181 601.047 151.978C601.047 150.935 600.547 150.133 599.547 149.572C598.586 149.01 597.366 148.529 595.885 148.128C594.445 147.727 592.865 147.346 591.144 146.985C589.424 146.624 587.823 146.103 586.343 145.421C584.902 144.74 583.682 143.837 582.682 142.715C581.721 141.592 581.241 140.068 581.241 138.143C581.241 137.02 581.481 135.958 581.962 134.955C582.442 133.913 583.162 133.01 584.122 132.249C585.082 131.487 586.263 130.885 587.663 130.444C589.104 129.963 590.764 129.722 592.645 129.722C594.045 129.722 595.285 129.863 596.366 130.143C597.486 130.384 598.466 130.725 599.306 131.166C600.187 131.567 600.947 132.048 601.587 132.609C602.227 133.131 602.787 133.672 603.268 134.234C604.308 135.557 605.068 137.061 605.548 138.745H600.447C600.087 137.943 599.567 137.201 598.886 136.519C598.326 135.958 597.526 135.436 596.486 134.955C595.485 134.474 594.205 134.234 592.645 134.234C591.524 134.234 590.544 134.354 589.704 134.594C588.864 134.835 588.163 135.156 587.603 135.557C587.083 135.918 586.683 136.339 586.403 136.82C586.163 137.261 586.043 137.702 586.043 138.143C586.043 139.186 586.523 139.988 587.483 140.549C588.483 141.111 589.704 141.592 591.144 141.993C592.625 142.394 594.225 142.775 595.945 143.136C597.666 143.497 599.246 144.018 600.687 144.7C602.167 145.381 603.388 146.303 604.348 147.466C605.348 148.589 605.848 150.093 605.848 151.978C605.848 153.181 605.588 154.323 605.068 155.406C604.548 156.489 603.768 157.451 602.727 158.293C601.687 159.135 600.407 159.797 598.886 160.278C597.366 160.759 595.585 161 593.545 161Z"
      fill="white"
    />
    <path
      d="M613.636 134.835H609.735V130.324H613.636V123.707H618.438V130.324H628.041V134.835H618.438V155.887H628.341V160.399H613.636V134.835Z"
      fill="white"
    />
    <path
      d="M646.96 161C644.999 161 643.139 160.619 641.378 159.857C639.658 159.055 638.137 157.972 636.817 156.609C635.497 155.206 634.456 153.541 633.696 151.617C632.936 149.692 632.556 147.607 632.556 145.361C632.556 143.116 632.936 141.03 633.696 139.106C634.456 137.181 635.497 135.537 636.817 134.173C638.137 132.77 639.658 131.687 641.378 130.925C643.139 130.123 644.999 129.722 646.96 129.722C648.921 129.722 650.581 130.003 651.941 130.564C653.302 131.126 654.402 131.747 655.242 132.429C656.123 133.111 656.743 133.752 657.103 134.354C657.503 134.915 657.703 135.196 657.703 135.196H657.763V130.324H662.564V160.399H657.763V155.587H657.703C657.703 155.587 657.503 155.887 657.103 156.489C656.743 157.05 656.123 157.672 655.242 158.353C654.402 158.995 653.302 159.597 651.941 160.158C650.581 160.719 648.921 161 646.96 161ZM647.56 156.489C649.001 156.489 650.341 156.228 651.581 155.707C652.822 155.145 653.902 154.384 654.822 153.421C655.742 152.419 656.463 151.236 656.983 149.872C657.503 148.509 657.763 147.005 657.763 145.361C657.763 143.717 657.503 142.213 656.983 140.85C656.463 139.487 655.742 138.324 654.822 137.361C653.902 136.359 652.822 135.597 651.581 135.076C650.341 134.514 649.001 134.234 647.56 134.234C646.12 134.234 644.779 134.514 643.539 135.076C642.299 135.597 641.218 136.359 640.298 137.361C639.378 138.324 638.658 139.487 638.137 140.85C637.617 142.213 637.357 143.717 637.357 145.361C637.357 147.005 637.617 148.509 638.137 149.872C638.658 151.236 639.378 152.419 640.298 153.421C641.218 154.384 642.299 155.145 643.539 155.707C644.779 156.228 646.12 156.489 647.56 156.489Z"
      fill="white"
    />
    <path
      d="M670.988 130.324H675.789V134.835H675.849C676.449 133.873 677.23 133.031 678.19 132.309C678.99 131.667 680.03 131.086 681.311 130.564C682.631 130.003 684.192 129.722 685.992 129.722C687.793 129.722 689.433 130.023 690.914 130.625C692.394 131.186 693.654 132.028 694.695 133.151C695.735 134.274 696.535 135.637 697.095 137.241C697.695 138.805 697.996 140.609 697.996 142.654V160.399H693.194V142.955C693.194 139.948 692.434 137.742 690.914 136.339C689.433 134.935 687.493 134.234 685.092 134.234C683.732 134.234 682.471 134.474 681.311 134.955C680.191 135.396 679.21 136.058 678.37 136.94C677.57 137.822 676.93 138.885 676.449 140.128C676.009 141.331 675.789 142.674 675.789 144.158V160.399H670.988V130.324Z"
      fill="white"
    />
    <path
      d="M707.296 134.835H703.395V130.324H707.296V123.707H712.097V130.324H721.7V134.835H712.097V155.887H722V160.399H707.296V134.835Z"
      fill="white"
    />
  </svg>
